<?xml version="1.0" encoding="us-ascii" standalone="no"?><svg xmlns="http://www.w3.org/2000/svg" xmlns:xlink="http://www.w3.org/1999/xlink" contentStyleType="text/css" height="398px" preserveAspectRatio="none" style="width:188px;height:398px;background:#FFFFFF;" version="1.1" viewBox="0 0 188 398" width="188px" zoomAndPan="magnify"><defs/><g><ellipse cx="137.5" cy="16" fill="#222222" rx="10" ry="10" style="stroke:#222222;stroke-width:1.0;"/><rect fill="#F1F1F1" height="33.9688" rx="12.5" ry="12.5" style="stroke:#181818;stroke-width:0.5;" width="89" x="93" y="67"/><text fill="#000000" font-family="sans-serif" font-size="12" lengthAdjust="spacing" textLength="69" x="103" y="88.1387">check input</text><g id="elem_#5"><polygon fill="#F1F1F1" points="137.5,142,149.5,154,137.5,166,125.5,154,137.5,142" style="stroke:#181818;stroke-width:0.5;"/></g><rect fill="#F1F1F1" height="33.9688" rx="12.5" ry="12.5" style="stroke:#181818;stroke-width:0.5;" width="123" x="7" y="220"/><text fill="#000000" font-family="sans-serif" font-size="12" lengthAdjust="spacing" textLength="103" x="17" y="241.1387">turn on verbosity</text><rect fill="#F1F1F1" height="33.9688" rx="12.5" ry="12.5" style="stroke:#181818;stroke-width:0.5;" width="102" x="80.5" y="295"/><text fill="#000000" font-family="sans-serif" font-size="12" lengthAdjust="spacing" textLength="82" x="90.5" y="316.1387">run command</text><ellipse cx="131.5" cy="381" fill="none" rx="11" ry="11" style="stroke:#222222;stroke-width:1.0;"/><ellipse cx="131.5" cy="381" fill="#222222" rx="6" ry="6" style="stroke:#222222;stroke-width:1.0;"/><!--link start to check input--><g id="link_start_check input"><path d="M137.5,26.177 C137.5,36.661 137.5,48.015 137.5,60.791 " fill="none" id="start-to-check input" style="stroke:#181818;stroke-width:1.0;"/><polygon fill="#181818" points="137.5,66.791,141.5,57.791,137.5,61.791,133.5,57.791,137.5,66.791" style="stroke:#181818;stroke-width:1.0;"/></g><!--link check input to #5--><g id="link_check input_#5"><path d="M137.5,101.115 C137.5,113.683 137.5,124.808 137.5,135.885 " fill="none" id="check input-to-#5" style="stroke:#181818;stroke-width:1.0;"/><polygon fill="#181818" points="137.5,141.885,141.5,132.885,137.5,136.885,133.5,132.885,137.5,141.885" style="stroke:#181818;stroke-width:1.0;"/><text fill="#000000" font-family="sans-serif" font-size="11" lengthAdjust="spacing" textLength="92" x="25.375" y="132.3462">input is verbose</text></g><!--link #5 to turn on verbosity--><g id="link_#5_turn on verbosity"><path d="M132.314,161.088 C121.783,173.45 101.4824,197.2816 86.0952,215.3446 " fill="none" id="#5-to-turn on verbosity" style="stroke:#181818;stroke-width:1.0;"/><polygon fill="#181818" points="82.2044,219.912,91.0856,215.6547,85.4468,216.1058,84.9957,210.467,82.2044,219.912" style="stroke:#181818;stroke-width:1.0;"/><text fill="#000000" font-family="sans-serif" font-size="11" lengthAdjust="spacing" textLength="21" x="110.5" y="197.2104">Yes</text></g><!--link turn on verbosity to run command--><g id="link_turn on verbosity_run command"><path d="M82.4817,254.201 C92.9219,266.298 103.207,278.2156 113.637,290.3018 " fill="none" id="turn on verbosity-to-run command" style="stroke:#181818;stroke-width:1.0;"/><polygon fill="#181818" points="117.557,294.8442,114.7053,285.4172,114.2904,291.0588,108.6487,290.6439,117.557,294.8442" style="stroke:#181818;stroke-width:1.0;"/></g><!--link #5 to run command--><g id="link_#5_run command"><path d="M138.325,165.42 C139.617,183.481 141.751,221.759 139.5,254 C138.539,267.757 137.2649,277.3247 135.3949,288.6811 " fill="none" id="#5-to-run command" style="stroke:#181818;stroke-width:1.0;"/><polygon fill="#181818" points="134.42,294.6014,139.8291,286.3709,135.2324,289.6678,131.9354,285.0711,134.42,294.6014" style="stroke:#181818;stroke-width:1.0;"/></g><!--link run command to end--><g id="link_run command_end"><path d="M131.5,329.2188 C131.5,341.9217 131.5,353.1896 131.5,363.9604 " fill="none" id="run command-to-end" style="stroke:#181818;stroke-width:1.0;"/><polygon fill="#181818" points="131.5,369.9604,135.5,360.9604,131.5,364.9604,127.5,360.9604,131.5,369.9604" style="stroke:#181818;stroke-width:1.0;"/></g><!--SRC=[ROex2e0m40NxdEAnbGQyWfs5Hn2nqBXYq6ma7y7RYs9fDynCeKkWgcgGMTbii7BaHAfTG2_2HfmS9X-Pa5OMzSnznt40fHm4Nhx1felUIY4BZ7Tkb9aKxv5_T2EpNHvVwF86]--></g></svg>