<?xml version="1.0" encoding="us-ascii" standalone="no"?><svg xmlns="http://www.w3.org/2000/svg" xmlns:xlink="http://www.w3.org/1999/xlink" contentStyleType="text/css" height="187px" preserveAspectRatio="none" style="width:405px;height:187px;background:#FFFFFF;" version="1.1" viewBox="0 0 405 187" width="405px" zoomAndPan="magnify"><defs/><g><!--class Car--><g id="elem_Car"><rect codeLine="1" fill="#F1F1F1" height="48" id="Car" rx="2.5" ry="2.5" style="stroke:#181818;stroke-width:0.5;" width="56" x="172" y="7"/><ellipse cx="187" cy="23" fill="#ADD1B2" rx="11" ry="11" style="stroke:#181818;stroke-width:1.0;"/><path d="M189.3438,18.6719 C188.4063,18.2344 187.8125,18.0938 186.9375,18.0938 C184.3125,18.0938 182.3125,20.1719 182.3125,22.8906 L182.3125,24.0156 C182.3125,26.5938 184.4219,28.4844 187.3125,28.4844 C188.5313,28.4844 189.6875,28.1875 190.4375,27.6406 C191.0156,27.2344 191.3438,26.7813 191.3438,26.3906 C191.3438,25.9375 190.9531,25.5469 190.4844,25.5469 C190.2656,25.5469 190.0625,25.625 189.875,25.8125 C189.4219,26.2969 189.4219,26.2969 189.2344,26.3906 C188.8125,26.6563 188.125,26.7813 187.3594,26.7813 C185.3125,26.7813 184.0156,25.6875 184.0156,23.9844 L184.0156,22.8906 C184.0156,21.1094 185.2656,19.7969 187,19.7969 C187.5781,19.7969 188.1875,19.9531 188.6563,20.2031 C189.1406,20.4844 189.3125,20.7031 189.4063,21.1094 C189.4688,21.5156 189.5,21.6406 189.6406,21.7656 C189.7813,21.9063 190.0156,22.0156 190.2344,22.0156 C190.5,22.0156 190.7656,21.875 190.9375,21.6563 C191.0469,21.5 191.0781,21.3125 191.0781,20.8906 L191.0781,19.4688 C191.0781,19.0313 191.0625,18.9063 190.9688,18.75 C190.8125,18.4844 190.5313,18.3438 190.2344,18.3438 C189.9375,18.3438 189.7344,18.4375 189.5156,18.75 L189.3438,18.6719 Z " fill="#000000"/><text fill="#000000" font-family="sans-serif" font-size="14" lengthAdjust="spacing" textLength="24" x="201" y="27.8467">Car</text><line style="stroke:#181818;stroke-width:0.5;" x1="173" x2="227" y1="39" y2="39"/><line style="stroke:#181818;stroke-width:0.5;" x1="173" x2="227" y1="47" y2="47"/></g><!--class Driver--><g id="elem_Driver"><rect fill="#F1F1F1" height="48" id="Driver" rx="2.5" ry="2.5" style="stroke:#181818;stroke-width:0.5;" width="76" x="7" y="7"/><ellipse cx="22" cy="23" fill="#ADD1B2" rx="11" ry="11" style="stroke:#181818;stroke-width:1.0;"/><path d="M24.3438,18.6719 C23.4063,18.2344 22.8125,18.0938 21.9375,18.0938 C19.3125,18.0938 17.3125,20.1719 17.3125,22.8906 L17.3125,24.0156 C17.3125,26.5938 19.4219,28.4844 22.3125,28.4844 C23.5313,28.4844 24.6875,28.1875 25.4375,27.6406 C26.0156,27.2344 26.3438,26.7813 26.3438,26.3906 C26.3438,25.9375 25.9531,25.5469 25.4844,25.5469 C25.2656,25.5469 25.0625,25.625 24.875,25.8125 C24.4219,26.2969 24.4219,26.2969 24.2344,26.3906 C23.8125,26.6563 23.125,26.7813 22.3594,26.7813 C20.3125,26.7813 19.0156,25.6875 19.0156,23.9844 L19.0156,22.8906 C19.0156,21.1094 20.2656,19.7969 22,19.7969 C22.5781,19.7969 23.1875,19.9531 23.6563,20.2031 C24.1406,20.4844 24.3125,20.7031 24.4063,21.1094 C24.4688,21.5156 24.5,21.6406 24.6406,21.7656 C24.7813,21.9063 25.0156,22.0156 25.2344,22.0156 C25.5,22.0156 25.7656,21.875 25.9375,21.6563 C26.0469,21.5 26.0781,21.3125 26.0781,20.8906 L26.0781,19.4688 C26.0781,19.0313 26.0625,18.9063 25.9688,18.75 C25.8125,18.4844 25.5313,18.3438 25.2344,18.3438 C24.9375,18.3438 24.7344,18.4375 24.5156,18.75 L24.3438,18.6719 Z " fill="#000000"/><text fill="#000000" font-family="sans-serif" font-size="14" lengthAdjust="spacing" textLength="44" x="36" y="27.8467">Driver</text><line style="stroke:#181818;stroke-width:0.5;" x1="8" x2="82" y1="39" y2="39"/><line style="stroke:#181818;stroke-width:0.5;" x1="8" x2="82" y1="47" y2="47"/></g><!--class Wheel--><g id="elem_Wheel"><rect fill="#F1F1F1" height="48" id="Wheel" rx="2.5" ry="2.5" style="stroke:#181818;stroke-width:0.5;" width="77" x="321.5" y="7"/><ellipse cx="336.5" cy="23" fill="#ADD1B2" rx="11" ry="11" style="stroke:#181818;stroke-width:1.0;"/><path d="M338.8438,18.6719 C337.9063,18.2344 337.3125,18.0938 336.4375,18.0938 C333.8125,18.0938 331.8125,20.1719 331.8125,22.8906 L331.8125,24.0156 C331.8125,26.5938 333.9219,28.4844 336.8125,28.4844 C338.0313,28.4844 339.1875,28.1875 339.9375,27.6406 C340.5156,27.2344 340.8438,26.7813 340.8438,26.3906 C340.8438,25.9375 340.4531,25.5469 339.9844,25.5469 C339.7656,25.5469 339.5625,25.625 339.375,25.8125 C338.9219,26.2969 338.9219,26.2969 338.7344,26.3906 C338.3125,26.6563 337.625,26.7813 336.8594,26.7813 C334.8125,26.7813 333.5156,25.6875 333.5156,23.9844 L333.5156,22.8906 C333.5156,21.1094 334.7656,19.7969 336.5,19.7969 C337.0781,19.7969 337.6875,19.9531 338.1563,20.2031 C338.6406,20.4844 338.8125,20.7031 338.9063,21.1094 C338.9688,21.5156 339,21.6406 339.1406,21.7656 C339.2813,21.9063 339.5156,22.0156 339.7344,22.0156 C340,22.0156 340.2656,21.875 340.4375,21.6563 C340.5469,21.5 340.5781,21.3125 340.5781,20.8906 L340.5781,19.4688 C340.5781,19.0313 340.5625,18.9063 340.4688,18.75 C340.3125,18.4844 340.0313,18.3438 339.7344,18.3438 C339.4375,18.3438 339.2344,18.4375 339.0156,18.75 L338.8438,18.6719 Z " fill="#000000"/><text fill="#000000" font-family="sans-serif" font-size="14" lengthAdjust="spacing" textLength="45" x="350.5" y="27.8467">Wheel</text><line style="stroke:#181818;stroke-width:0.5;" x1="322.5" x2="397.5" y1="39" y2="39"/><line style="stroke:#181818;stroke-width:0.5;" x1="322.5" x2="397.5" y1="47" y2="47"/></g><!--class Person--><g id="elem_Person"><rect fill="#F1F1F1" height="48" id="Person" rx="2.5" ry="2.5" style="stroke:#181818;stroke-width:0.5;" width="81" x="159.5" y="132"/><ellipse cx="174.5" cy="148" fill="#ADD1B2" rx="11" ry="11" style="stroke:#181818;stroke-width:1.0;"/><path d="M176.8438,143.6719 C175.9063,143.2344 175.3125,143.0938 174.4375,143.0938 C171.8125,143.0938 169.8125,145.1719 169.8125,147.8906 L169.8125,149.0156 C169.8125,151.5938 171.9219,153.4844 174.8125,153.4844 C176.0313,153.4844 177.1875,153.1875 177.9375,152.6406 C178.5156,152.2344 178.8438,151.7813 178.8438,151.3906 C178.8438,150.9375 178.4531,150.5469 177.9844,150.5469 C177.7656,150.5469 177.5625,150.625 177.375,150.8125 C176.9219,151.2969 176.9219,151.2969 176.7344,151.3906 C176.3125,151.6563 175.625,151.7813 174.8594,151.7813 C172.8125,151.7813 171.5156,150.6875 171.5156,148.9844 L171.5156,147.8906 C171.5156,146.1094 172.7656,144.7969 174.5,144.7969 C175.0781,144.7969 175.6875,144.9531 176.1563,145.2031 C176.6406,145.4844 176.8125,145.7031 176.9063,146.1094 C176.9688,146.5156 177,146.6406 177.1406,146.7656 C177.2813,146.9063 177.5156,147.0156 177.7344,147.0156 C178,147.0156 178.2656,146.875 178.4375,146.6563 C178.5469,146.5 178.5781,146.3125 178.5781,145.8906 L178.5781,144.4688 C178.5781,144.0313 178.5625,143.9063 178.4688,143.75 C178.3125,143.4844 178.0313,143.3438 177.7344,143.3438 C177.4375,143.3438 177.2344,143.4375 177.0156,143.75 L176.8438,143.6719 Z " fill="#000000"/><text fill="#000000" font-family="sans-serif" font-size="14" lengthAdjust="spacing" textLength="49" x="188.5" y="152.8467">Person</text><line style="stroke:#181818;stroke-width:0.5;" x1="160.5" x2="239.5" y1="164" y2="164"/><line style="stroke:#181818;stroke-width:0.5;" x1="160.5" x2="239.5" y1="172" y2="172"/></g><!--link Driver to Car--><g id="link_Driver_Car"><path codeLine="3" d="M83.3146,31 C110.747,31 147.068,31 171.855,31 " fill="none" id="Driver-Car" style="stroke:#181818;stroke-width:1.0;"/><polygon fill="#000000" points="110.5,19.5664,101.4549,16.6275,101.4549,22.5053,110.5,19.5664" style="stroke:#000000;stroke-width:1.0;"/><text fill="#000000" font-family="sans-serif" font-size="13" lengthAdjust="spacing" textLength="39" x="114.5" y="24.0669">drives</text></g><!--reverse link Car to Wheel--><g id="link_Car_Wheel"><path codeLine="4" d="M240.236,31 C266.074,31 292.535,31 321.243,31 " fill="none" id="Car-backto-Wheel" style="stroke:#181818;stroke-width:1.0;"/><polygon fill="#181818" points="228.236,31,234.236,35,240.236,31,234.236,27,228.236,31" style="stroke:#181818;stroke-width:1.0;"/><polygon fill="#000000" points="255.25,19.5664,246.2049,16.6275,246.2049,22.5053,255.25,19.5664" style="stroke:#000000;stroke-width:1.0;"/><text fill="#000000" font-family="sans-serif" font-size="13" lengthAdjust="spacing" textLength="44" x="259.25" y="24.0669">have 4</text></g><!--link Car to Person--><g id="link_Car_Person"><path codeLine="5" d="M200,55.135 C200,77.126 200,110.0123 200,131.9684 " fill="none" id="Car-Person" style="stroke:#181818;stroke-width:1.0;"/><polygon fill="#000000" points="205,88.5664,202.0611,97.6115,207.9389,97.6115,205,88.5664" style="stroke:#000000;stroke-width:1.0;"/><text fill="#000000" font-family="sans-serif" font-size="13" lengthAdjust="spacing" textLength="34" x="214" y="98.0669">owns</text></g><!--SRC=[Iyv9B2vMS4uiuk9oASeiIorIq0Nn5AmKKa3SOWKxBX1NIrSXF2CrDGSedf5ObgfW0XNNrLK8I2qgpiy3IjWev9Vd5GC0]--></g></svg>