<?xml version="1.0" encoding="us-ascii" standalone="no"?><svg xmlns="http://www.w3.org/2000/svg" xmlns:xlink="http://www.w3.org/1999/xlink" contentStyleType="text/css" height="238px" preserveAspectRatio="none" style="width:249px;height:238px;background:#FFFFFF;" version="1.1" viewBox="0 0 249 238" width="249px" zoomAndPan="magnify"><defs/><g><ellipse cx="78.5" cy="16" fill="#222222" rx="10" ry="10" style="stroke:#222222;stroke-width:1.0;"/><g id="State1"><rect fill="#F1F1F1" height="64.2344" rx="12.5" ry="12.5" style="stroke:#181818;stroke-width:0.5;" width="143" x="7" y="86"/><line style="stroke:#181818;stroke-width:0.5;" x1="7" x2="150" y1="112.2969" y2="112.2969"/><text fill="#000000" font-family="sans-serif" font-size="14" lengthAdjust="spacing" textLength="49" x="54" y="103.9951">State1</text><text fill="#000000" font-family="sans-serif" font-size="12" lengthAdjust="spacing" textLength="84" x="12" y="128.4355">this is a string</text><text fill="#000000" font-family="sans-serif" font-size="12" lengthAdjust="spacing" textLength="123" x="12" y="142.4043">this is another string</text></g><ellipse cx="146.5" cy="221" fill="none" rx="11" ry="11" style="stroke:#222222;stroke-width:1.0;"/><ellipse cx="146.5" cy="221" fill="#222222" rx="6" ry="6" style="stroke:#222222;stroke-width:1.0;"/><rect fill="#F1F1F1" height="40" rx="12.5" ry="12.5" style="stroke:#181818;stroke-width:0.5;" width="58" x="185.5" y="98"/><text fill="#000000" font-family="sans-serif" font-size="14" lengthAdjust="spacing" textLength="48" x="190.5" y="122.8467">State2</text><!--link *start* to State1--><g id="link_*start*_State1"><path d="M78.5,26.229 C78.5,39.67 78.5,59.276 78.5,79.873 " fill="none" id="*start*-to-State1" style="stroke:#181818;stroke-width:1.0;"/><polygon fill="#181818" points="78.5,85.873,82.5,76.873,78.5,80.873,74.5,76.873,78.5,85.873" style="stroke:#181818;stroke-width:1.0;"/></g><!--link State1 to *end*--><g id="link_State1_*end*"><path d="M99.4571,150.1275 C113.662,171.2254 128.095,192.6635 137.19,206.1719 " fill="none" id="State1-to-*end*" style="stroke:#181818;stroke-width:1.0;"/><polygon fill="#181818" points="140.541,211.1489,138.8326,201.4493,137.7485,207.0014,132.1965,205.9173,140.541,211.1489" style="stroke:#181818;stroke-width:1.0;"/></g><!--link State1 to State2--><g id="link_State1_State2"><path d="M150.219,118 C161.937,118 167.655,118 179.373,118 " fill="none" id="State1-to-State2" style="stroke:#181818;stroke-width:1.0;"/><polygon fill="#181818" points="185.373,118,176.373,114,180.373,118,176.373,122,185.373,118" style="stroke:#181818;stroke-width:1.0;"/></g><!--link State2 to *end*--><g id="link_State2_*end*"><path d="M201.389,138.4738 C186.569,160.4859 166.4549,190.3612 155.6489,206.4117 " fill="none" id="State2-to-*end*" style="stroke:#181818;stroke-width:1.0;"/><polygon fill="#181818" points="152.298,211.3888,160.6424,206.157,155.0904,207.2412,154.0062,201.6892,152.298,211.3888" style="stroke:#181818;stroke-width:1.0;"/></g><!--SRC=[oyXCILL8pIqegLH8IIrEBieiACdCp-EArefLqDMrKmWkIIn9DUI2K60He0oCQwLGaf5Ph014YGh59KMPUUbOPFBoIp9IYs3oS9EWHXj118nWHWC0]--></g></svg>